<?xml version="1.0" encoding="UTF-8"?>
<svg version="1.1" xmlns="http://www.w3.org/2000/svg" width="530" height="552">
<path d="M0 0 C174.9 0 349.8 0 530 0 C530 182.16 530 364.32 530 552 C355.1 552 180.2 552 0 552 C0 369.84 0 187.68 0 0 Z " fill="#FEFEFE" transform="translate(0,0)"/>
<path d="M0 0 C4.78655932 16.34619467 9.09309942 32.84103448 9.203125 49.98828125 C9.21018463 50.72479416 9.21724426 51.46130707 9.22451782 52.22013855 C9.38815929 74.30635969 7.58612101 93.52761054 0.74926758 114.6340332 C-0.03957621 117.12497005 -0.76387751 119.63026094 -1.48828125 122.140625 C-3.57118956 129.11046063 -6.76541919 135.50338561 -10 142 C-10.31630371 142.63663574 -10.63260742 143.27327148 -10.95849609 143.92919922 C-20.02533856 161.98444327 -32.20383903 177.32590151 -46 192 C-46.58265625 192.63679687 -47.1653125 193.27359375 -47.765625 193.9296875 C-55.67776288 202.2813886 -65.94032916 210.42957479 -76 216 C-76.66 216 -77.32 216 -78 216 C-79.10644531 214.51318359 -79.10644531 214.51318359 -80.328125 212.3984375 C-81.02192261 211.21556152 -81.02192261 211.21556152 -81.72973633 210.00878906 C-82.23142334 209.13963867 -82.73311035 208.27048828 -83.25 207.375 C-87.63991358 199.91127842 -92.13824522 192.53911626 -96.8125 185.25 C-101.73045007 177.56795654 -106.60879381 169.86349648 -111.4375 162.125 C-112.37106323 160.62888184 -112.37106323 160.62888184 -113.32348633 159.10253906 C-114.58551906 157.07924663 -115.84731879 155.05580884 -117.10888672 153.03222656 C-120.23543421 148.01909464 -123.36796466 143.00970442 -126.5 138 C-130.28669989 131.94236888 -134.07260999 125.8842495 -137.85546875 119.82421875 C-145.72945816 107.21141502 -145.72945816 107.21141502 -153.65673828 94.63208008 C-155.10353499 92.34641071 -156.54627778 90.05822692 -157.98828125 87.76953125 C-159.58276234 85.23900793 -161.18348911 82.71295813 -162.79443359 80.19287109 C-164.64290491 77.30093121 -166.47843002 74.40108848 -168.3125 71.5 C-168.89467285 70.59677002 -169.4768457 69.69354004 -170.07666016 68.76293945 C-170.60437012 67.92335693 -171.13208008 67.08377441 -171.67578125 66.21875 C-172.14927002 65.47560547 -172.62275879 64.73246094 -173.1105957 63.96679688 C-174 62 -174 62 -173 59 C-171.13671875 57.97265625 -171.13671875 57.97265625 -168.6875 57.0625 C-167.7696875 56.71960938 -166.851875 56.37671875 -165.90625 56.0234375 C-160.95858413 54.2811143 -155.98674786 52.62691986 -151 51 C-147.45650773 49.83881935 -143.91545296 48.67041052 -140.375 47.5 C-139.50447998 47.21535889 -138.63395996 46.93071777 -137.73706055 46.63745117 C-132.49582872 44.9038852 -127.38043736 42.97402196 -122.26806641 40.89257812 C-119.38897575 39.75953664 -116.47172189 38.85781663 -113.5 38 C-109.57784731 36.82701976 -105.78005149 35.57093049 -102 34 C-97.15079347 31.98474534 -92.19565337 30.50690693 -87.16796875 29.00390625 C-83.48504146 27.83681339 -79.95993223 26.41389755 -76.39453125 24.93359375 C-73.95487555 23.98240662 -71.51582117 23.22383657 -69 22.5 C-65.61637101 21.52496672 -62.38253494 20.39985859 -59.125 19.0625 C-53.5031539 16.75832271 -47.77415078 14.88380902 -42 13 C-38.45650773 11.83881935 -34.91545296 10.67041052 -31.375 9.5 C-30.06921997 9.07303833 -30.06921997 9.07303833 -28.73706055 8.63745117 C-23.47593736 6.89730602 -18.32541267 4.98437403 -13.20117188 2.87402344 C-8.74969827 1.10646848 -4.84442697 0 0 0 Z " fill="#86C7F3" transform="translate(441,245)"/>
<path d="M0 0 C10.0105181 0 18.77370483 0.01448244 28.4375 1.6875 C29.5102417 1.86829102 30.5829834 2.04908203 31.68823242 2.23535156 C65.26302031 8.14447396 96.36681049 23.62652245 122 46 C122.50595703 46.43892578 123.01191406 46.87785156 123.53320312 47.33007812 C145.76955097 66.75648651 164.67059062 92.79188679 174 121 C174 121.99 174 122.98 174 124 C151.42857538 131.95069638 128.84234799 139.85898273 106.25 147.75 C105.57631378 147.98532944 104.90262756 148.22065887 104.20852661 148.46311951 C89.41920354 153.62917734 74.62762456 158.78846623 59.82421875 163.9140625 C58.71811249 164.29715576 57.61200623 164.68024902 56.47238159 165.07495117 C51.36756674 166.84259026 46.26207352 168.60822183 41.15527344 170.37011719 C39.32084663 171.00421918 37.48653393 171.63865139 35.65234375 172.2734375 C34.78030304 172.57499756 33.90826233 172.87655762 33.00979614 173.18725586 C28.2757085 174.83286227 23.55944093 176.51971087 18.85595703 178.25097656 C17.84578018 178.62251862 16.83560333 178.99406067 15.79481506 179.37686157 C13.8510714 180.09453898 11.90895727 180.81664982 9.96873474 181.54379272 C9.09934769 181.86530304 8.22996063 182.18681335 7.33422852 182.51806641 C6.56788589 182.80469147 5.80154327 183.09131653 5.01197815 183.3866272 C3 184 3 184 0 184 C0 123.28 0 62.56 0 0 Z " fill="#FFA1B5" transform="translate(265,118)"/>
<path d="M0 0 C5.54486602 2.97564799 10.33939621 6.45370401 15.25 10.375 C21.52509045 15.32223128 27.86044537 20.16086799 34.3125 24.875 C41.10180563 29.84029218 47.82148555 34.88665692 54.5 40 C61.11938274 45.0666281 67.77503207 50.07435459 74.5 55 C82.12740017 60.5866242 89.65644565 66.29276338 97.1640625 72.0390625 C103.65378378 76.99728613 110.20836128 81.85887601 116.79858398 86.68237305 C124.04844139 92.00259322 131.19500193 97.45502447 138.32421875 102.93554688 C139.16726562 103.58201172 140.0103125 104.22847656 140.87890625 104.89453125 C141.6272876 105.47050049 142.37566895 106.04646973 143.14672852 106.63989258 C144.95776313 108.04915517 144.95776313 108.04915517 147 109 C145.76978239 112.69065282 144.73752099 113.07694511 141.48828125 115.08984375 C140.51955078 115.69803955 139.55082031 116.30623535 138.55273438 116.93286133 C136.94881836 117.92515747 136.94881836 117.92515747 135.3125 118.9375 C132.99274988 120.39315584 130.6778162 121.85638205 128.36328125 123.3203125 C127.75791534 123.70240372 127.15254944 124.08449493 126.52883911 124.47816467 C119.9447293 128.64522726 113.47087506 132.97253114 107 137.3125 C104.45512185 139.01666472 101.90943202 140.71961232 99.36328125 142.421875 C98.70175049 142.86415436 98.04021973 143.30643372 97.35864258 143.76211548 C88.66201845 149.56989337 79.92400947 155.31497772 71.1875 161.0625 C69.90545181 161.90595474 69.90545181 161.90595474 68.59750366 162.76644897 C65.09580952 165.07002535 61.59400178 167.37342877 58.0919342 169.67643738 C51.64443626 173.91678265 45.20042911 178.16239888 38.7578125 182.41015625 C35.99795939 184.2293563 33.23807182 186.04850405 30.47817993 187.86764526 C28.72994991 189.02016934 26.98187718 190.17293207 25.23397827 191.32595825 C20.5409494 194.42158864 15.84519736 197.51296514 11.14312744 200.59484863 C9.71619656 201.53042243 8.29004609 202.46718762 6.86468506 203.40515137 C4.89589568 204.69929306 2.92325239 205.98731417 0.94921875 207.2734375 C0.37033401 207.65529205 -0.20855072 208.03714661 -0.80497742 208.43057251 C-4.7707111 211 -4.7707111 211 -7 211 C-33.85676058 166.62445071 -43.65155622 116.40752328 -31.30712891 65.30200195 C-30.31081121 61.50005675 -29.17528214 57.74983136 -28 54 C-27.79568359 53.31244629 -27.59136719 52.62489258 -27.38085938 51.91650391 C-21.74512628 33.10836291 -12.08389515 15.42568031 0 0 Z " fill="#C2A3FF" transform="translate(114,194)"/>
<path d="M0 0 C0.05433504 19.65173105 -0.06298799 39.29654453 -0.34395218 58.94633102 C-0.37553159 61.16230265 -0.40629267 63.37828467 -0.4369812 65.5942688 C-0.98464566 104.73596956 -1.98704058 143.86804857 -3 183 C-5.88325381 183.0199013 -8.76636866 183.03443313 -11.6496582 183.04589844 C-12.86698009 183.05512833 -12.86698009 183.05512833 -14.10889435 183.06454468 C-19.97966106 183.0820424 -25.46155768 182.59928391 -31.1875 181.25 C-32.02079834 181.06735596 -32.85409668 180.88471191 -33.71264648 180.6965332 C-36.14765264 180.15347428 -38.57393592 179.58153426 -41 179 C-42.00691895 178.76772705 -42.00691895 178.76772705 -43.03417969 178.53076172 C-87.56807505 168.17164077 -125.15506606 140.68106512 -151.8828125 104.09375 C-152.25148438 103.4028125 -152.62015625 102.711875 -153 102 C-151.8493401 98.54802029 -151.27619626 98.24853812 -148.3125 96.375 C-147.49088379 95.8480957 -146.66926758 95.32119141 -145.82275391 94.77832031 C-144.89124512 94.19147461 -143.95973633 93.60462891 -143 93 C-140.88187839 91.64208094 -138.76477285 90.28257628 -136.6484375 88.921875 C-135.76724747 88.35711456 -135.76724747 88.35711456 -134.86825562 87.78094482 C-127.27997778 82.91162504 -119.76074415 77.9372555 -112.23510742 72.97192383 C-108.69093123 70.63378196 -105.14526553 68.29790347 -101.59967041 65.96191406 C-98.87130703 64.16429446 -96.14315516 62.36635423 -93.41503906 60.56835938 C-88.17063431 57.11219911 -82.92533589 53.65739736 -77.6796875 50.203125 C-76.83687225 49.64812317 -75.99405701 49.09312134 -75.1257019 48.52130127 C-70.90339756 45.74094063 -66.68098182 42.96074924 -62.45849609 40.18066406 C-54.43373448 34.89690785 -46.40994308 29.61169403 -38.38916016 24.32189941 C-34.59140537 21.81735386 -30.79315882 19.31355464 -26.99487305 16.80981445 C-25.18033604 15.6134111 -23.36604138 14.4166401 -21.55200195 13.21948242 C-19.04048467 11.56206354 -16.52814329 9.90590089 -14.015625 8.25 C-13.27487732 7.76067993 -12.53412964 7.27135986 -11.77093506 6.76721191 C-1.49529852 0 -1.49529852 0 0 0 Z " fill="#93D9D9" transform="translate(263,307)"/>
<path d="M0 0 C2.65097732 2.55540414 4.45457726 5.15506778 6.37109375 8.3125 C7.02150635 9.37807129 7.67191895 10.44364258 8.34204102 11.54150391 C8.68357208 12.10524719 9.02510315 12.66899048 9.37698364 13.24981689 C11.17755027 16.221314 12.99212701 19.18424712 14.8046875 22.1484375 C15.16633499 22.74071136 15.52798248 23.33298523 15.90058899 23.94320679 C18.90935125 28.86623217 21.96978143 33.75440885 25.0625 38.625 C29.57128003 45.73170716 34.04430818 52.85987889 38.5 60 C42.98096986 67.17882938 47.47422851 74.34932701 52 81.5 C60.38548551 94.75192307 68.67527569 108.06389706 76.97265625 121.37109375 C83.57841074 131.96013951 90.20068811 142.53385054 97 153 C85.72898944 162.62053502 71.33357458 167.7945067 57.40185547 172.234375 C55.15817336 172.94958003 52.92506788 173.69173771 50.69140625 174.4375 C43.10435534 176.8965477 35.5094174 178.60814886 27.625 179.8125 C26.84842041 179.93657227 26.07184082 180.06064453 25.27172852 180.18847656 C19.21727176 181.01666615 13.2321646 181.05866839 7.13427734 181.0300293 C5.81456184 181.02677769 5.81456184 181.02677769 4.46818542 181.02346039 C2.31211677 181.01783491 0.15605628 181.00921876 -2 181 C-2.23016153 145.97804664 -1.62930935 110.96350772 -1.10923576 75.94670141 C-0.9860355 67.64376616 -0.86616021 59.34078377 -0.74648476 51.03779709 C-0.5012017 34.0251454 -0.25199212 17.01255362 0 0 Z " fill="#FFE29A" transform="translate(265,309)"/>
<path d="M0 0 C5.64697266 14.30566406 11.29394531 28.61132812 16.94091797 42.91699219 C17.25098282 43.70248947 17.56104767 44.48798676 17.88050842 45.29728699 C18.49854117 46.86297062 19.11657299 48.42865462 19.73460388 49.99433899 C21.28162493 53.91347092 22.82866271 57.83259626 24.37573242 61.75170898 C27.17109772 68.83311069 29.96638603 75.91454269 32.76098633 82.99624634 C33.37471296 84.5514187 33.98848267 86.10657407 34.60229492 87.66171265 C36.13824189 91.5531672 37.67367138 95.4448242 39.20800781 99.33691406 C42.27216842 107.10702383 45.34505516 114.87351192 48.43630981 122.63288879 C49.99666265 126.55038455 51.55397109 130.46908766 53.11114502 134.3878479 C53.86152538 136.2736918 54.61340173 138.15894123 55.36688232 140.04354858 C56.42027746 142.67857327 57.46843678 145.31562862 58.515625 147.953125 C58.8243454 148.721371 59.1330658 149.489617 59.45114136 150.28114319 C61.62161522 155.76842265 63.38023593 161.32684348 65 167 C64.29828674 166.39798767 64.29828674 166.39798767 63.58239746 165.78381348 C60.60626458 163.23081086 57.62749578 160.68105958 54.640625 158.140625 C49.12388639 153.44106185 43.64770944 148.71905559 38.3125 143.8125 C34.83863691 140.62263156 31.30089975 137.57951106 27.625 134.625 C22.8293951 130.75845816 18.33121333 126.65148017 13.83862305 122.4440918 C9.62588877 118.52107276 5.23595547 114.88096281 0.74609375 111.27734375 C-2.79678299 108.33922549 -6.15441772 105.21768822 -9.52197266 102.08349609 C-12.73316873 99.11269934 -16.02636841 96.30031679 -19.4375 93.5625 C-24.21621628 89.71889943 -28.69157687 85.63039836 -33.16381836 81.44165039 C-36.51099327 78.32446055 -39.93005023 75.36426202 -43.5 72.5 C-48.88576637 68.17566204 -53.91511004 63.52964973 -58.9609375 58.8203125 C-62.56498363 55.45969163 -66.26031077 52.20867595 -70 49 C-56.85771473 28.88308088 -33.46749654 15.67413863 -12.8125 4.5 C-11.87651978 3.99194824 -11.87651978 3.99194824 -10.92163086 3.47363281 C-7.28256079 1.5438608 -4.15010628 0 0 0 Z " fill="#A1FFB5" transform="translate(195,132)"/>
<path d="M0 0 C0 59.07 0 118.14 0 179 C-2.58531581 176.41468419 -3.19617762 174.08007534 -4.4375 170.625 C-7.12891453 163.27195755 -9.94254608 155.9726456 -12.8125 148.6875 C-13.27229248 147.51960937 -13.73208496 146.35171875 -14.20581055 145.1484375 C-15.80155684 141.09804295 -17.40051091 137.04891775 -19 133 C-19.46560333 131.82132355 -19.46560333 131.82132355 -19.94061279 130.61883545 C-23.84494434 120.73591271 -27.75222992 110.85415798 -31.66015625 100.97265625 C-32.02451782 100.05133911 -32.38887939 99.13002197 -32.76428223 98.18078613 C-34.51029463 93.76604969 -36.25657216 89.35141846 -38.00341797 84.93701172 C-44.67914287 68.06574477 -51.33964908 51.18854937 -57.93423462 34.28536987 C-58.55565608 32.6932029 -59.17785417 31.10133881 -59.8008728 29.50979614 C-60.65874235 27.31736557 -61.51342456 25.12371993 -62.3671875 22.9296875 C-62.62058395 22.28365067 -62.87398041 21.63761383 -63.13505554 20.97200012 C-64.28299384 18.01171354 -65.33454779 15.10834954 -66 12 C-60.43874798 10.21924676 -54.87276077 8.45532542 -49.29785156 6.71777344 C-47.52725524 6.16469724 -45.75916964 5.60357887 -43.9921875 5.0390625 C-38.18848054 3.30354884 -32.28417731 2.27571016 -26.3125 1.3125 C-25.14666382 1.11491089 -25.14666382 1.11491089 -23.95727539 0.91333008 C-15.78415213 -0.31798655 -8.55192941 0 0 0 Z " fill="#F387C7" transform="translate(263,118)"/>
<path d="M0 0 C3.67956291 1.56232021 6.16515793 3.83584082 9.0625 6.5625 C12.73250604 9.97608641 16.45998885 13.23955183 20.375 16.375 C25.1714071 20.24218863 29.6704146 24.34980716 34.16357422 28.55810547 C37.51081785 31.67539336 40.92995906 34.63566482 44.5 37.5 C49.26108478 41.31994011 53.71273025 45.38938819 58.1640625 49.55859375 C61.51116869 52.67568554 64.93014141 55.63581113 68.5 58.5 C72.66666952 61.84302555 76.60413948 65.35120521 80.5 69 C85.31412808 73.50738718 90.26598317 77.75476181 95.41015625 81.88671875 C99.38639834 85.13128431 103.1977684 88.55452099 107 92 C102.99721935 92 101.51202411 90.47550007 98.3125 88.125 C97.31863281 87.40570313 96.32476562 86.68640625 95.30078125 85.9453125 C94.54152344 85.30335938 93.78226562 84.66140625 93 84 C93 83.34 93 82.68 93 82 C92.26676514 81.73606445 91.53353027 81.47212891 90.77807617 81.20019531 C87.99193917 79.99651753 85.9464024 78.6469328 83.55078125 76.796875 C82.29273682 75.83177002 82.29273682 75.83177002 81.00927734 74.84716797 C79.67437256 73.80906982 79.67437256 73.80906982 78.3125 72.75 C77.38131348 72.03344238 76.45012695 71.31688477 75.49072266 70.57861328 C70.33072173 66.60215519 65.19553896 62.59402902 60.06201172 58.58349609 C59.34029785 58.01969238 58.61858398 57.45588867 57.875 56.875 C57.14555176 56.30475098 56.41610352 55.73450195 55.66455078 55.14697266 C49.63289947 50.45007513 43.49462565 45.90973264 37.32470703 41.39672852 C31.24375711 36.94063523 25.23655103 32.39446408 19.25 27.8125 C10.91177634 21.43123776 2.50050248 15.16319074 -6 9 C-2.25 2.25 -2.25 2.25 0 0 Z " fill="#FFC68F" transform="translate(122,183)"/>
<path d="M0 0 C15.84 0 31.68 0 48 0 C48 4.29 48 8.58 48 13 C32.16 13 16.32 13 0 13 C0 8.71 0 4.42 0 0 Z " fill="#98DADA" transform="translate(333,89)"/>
<path d="M0 0 C15.84 0 31.68 0 48 0 C48 4.29 48 8.58 48 13 C32.16 13 16.32 13 0 13 C0 8.71 0 4.42 0 0 Z " fill="#8BC9F3" transform="translate(96,89)"/>
<path d="M0 0 C15.84 0 31.68 0 48 0 C48 4.29 48 8.58 48 13 C32.16 13 16.32 13 0 13 C0 8.71 0 4.42 0 0 Z " fill="#FFC791" transform="translate(289,34)"/>
<path d="M0 0 C15.84 0 31.68 0 48 0 C48 4.29 48 8.58 48 13 C32.16 13 16.32 13 0 13 C0 8.71 0 4.42 0 0 Z " fill="#C4A7FF" transform="translate(185,34)"/>
<path d="M0 0 C15.51 0 31.02 0 47 0 C47 4.29 47 8.58 47 13 C31.49 13 15.98 13 0 13 C0 8.71 0 4.42 0 0 Z " fill="#FFE39D" transform="translate(197,89)"/>
<path d="M0 0 C15.51 0 31.02 0 47 0 C47 4.29 47 8.58 47 13 C31.49 13 15.98 13 0 13 C0 8.71 0 4.42 0 0 Z " fill="#97DADA" transform="translate(88,34)"/>
<path d="M0 0 C15.84 0 31.68 0 48 0 C48 3.96 48 7.92 48 12 C32.16 12 16.32 12 0 12 C0 8.04 0 4.08 0 0 Z " fill="#FFE29B" transform="translate(318,7)"/>
<path d="M0 0 C15.84 0 31.68 0 48 0 C48 3.96 48 7.92 48 12 C32.16 12 16.32 12 0 12 C0 8.04 0 4.08 0 0 Z " fill="#FFA1B5" transform="translate(61,7)"/>
<path d="M0 0 C15.51 0 31.02 0 47 0 C47 3.96 47 7.92 47 12 C31.49 12 15.98 12 0 12 C0 8.04 0 4.08 0 0 Z " fill="#FFA1B5" transform="translate(361,62)"/>
<path d="M0 0 C15.51 0 31.02 0 47 0 C47 3.96 47 7.92 47 12 C31.49 12 15.98 12 0 12 C0 8.04 0 4.08 0 0 Z " fill="#F386C7" transform="translate(236,62)"/>
<path d="M0 0 C15.51 0 31.02 0 47 0 C47 3.96 47 7.92 47 12 C31.49 12 15.98 12 0 12 C0 8.04 0 4.08 0 0 Z " fill="#A1FFB5" transform="translate(71,62)"/>
<path d="M0 0 C15.51 0 31.02 0 47 0 C47 3.96 47 7.92 47 12 C31.49 12 15.98 12 0 12 C0 8.04 0 4.08 0 0 Z " fill="#86C7F3" transform="translate(185,7)"/>
<path d="M0 0 C2.5 0.25 2.5 0.25 4.5 2.25 C6.48821313 2.64764263 8.48944339 2.98775349 10.5 3.25 C10.5 2.26 10.5 1.27 10.5 0.25 C11.49 0.58 12.48 0.91 13.5 1.25 C12.84 1.25 12.18 1.25 11.5 1.25 C11.5 1.91 11.5 2.57 11.5 3.25 C12.49 3.25 13.48 3.25 14.5 3.25 C14.83 2.59 15.16 1.93 15.5 1.25 C15.83 3.23 16.16 5.21 16.5 7.25 C17.16 5.93 17.82 4.61 18.5 3.25 C20.15 3.25 21.8 3.25 23.5 3.25 C23.17 3.91 22.84 4.57 22.5 5.25 C21.51 4.92 20.52 4.59 19.5 4.25 C19.5 4.91 19.5 5.57 19.5 6.25 C21.975 6.745 21.975 6.745 24.5 7.25 C24.17 8.57 23.84 9.89 23.5 11.25 C20.53 11.25 17.56 11.25 14.5 11.25 C14.5 8.94 14.5 6.63 14.5 4.25 C13.51 4.25 12.52 4.25 11.5 4.25 C11.5 6.56 11.5 8.87 11.5 11.25 C11.17 11.25 10.84 11.25 10.5 11.25 C10.5 8.94 10.5 6.63 10.5 4.25 C9.84 4.25 9.18 4.25 8.5 4.25 C8.5 6.56 8.5 8.87 8.5 11.25 C7.984375 11.064375 7.46875 10.87875 6.9375 10.6875 C3.64091261 10.09580483 0.77754265 10.682733 -2.5 11.25 C-4.0625 9.5625 -4.0625 9.5625 -5.5 7.25 C-5.20650822 3.14111503 -4.496108 0.4496108 0 0 Z " fill="#CBCBCB" transform="translate(158.5,88.75)"/>
<path d="M0 0 C3.29184437 0.73649591 3.29184437 0.73649591 7.125 -0.5 C7.125 3.13 7.125 6.76 7.125 10.5 C5.805 10.17 4.485 9.84 3.125 9.5 C2.114375 9.70625 1.10375 9.9125 0.0625 10.125 C-2.875 10.5 -2.875 10.5 -4.8125 9.5 C-6.49456323 6.33376334 -5.68895841 3.88105802 -4.875 0.5 C-2.875 -0.5 -2.875 -0.5 0 0 Z " fill="#F0F0F0" transform="translate(298.875,61.5)"/>
<path d="M0 0 C2 0.33333333 4 0.66666667 6 1 C6.33 0.67 6.66 0.34 7 0 C9.5 -0.125 9.5 -0.125 12 0 C13 1 13 1 13.0625 4.5625 C13.041875 5.696875 13.02125 6.83125 13 8 C10.85423363 8.02685938 8.70837355 8.04633088 6.5625 8.0625 C5.36753906 8.07410156 4.17257812 8.08570312 2.94140625 8.09765625 C0 8 0 8 -1 7 C-1.125 4 -1.125 4 -1 1 C-0.67 0.67 -0.34 0.34 0 0 Z " fill="#D3D3D3" transform="translate(282,92)"/>
<path d="M0 0 C0.99 0.33 1.98 0.66 3 1 C2.34 1 1.68 1 1 1 C1 1.66 1 2.32 1 3 C1.99 3 2.98 3 4 3 C4.33 2.34 4.66 1.68 5 1 C5.33 2.98 5.66 4.96 6 7 C6.66 5.68 7.32 4.36 8 3 C9.65 3 11.3 3 13 3 C12.67 3.66 12.34 4.32 12 5 C11.01 4.67 10.02 4.34 9 4 C9 4.66 9 5.32 9 6 C10.65 6.33 12.3 6.66 14 7 C13.67 8.32 13.34 9.64 13 11 C10.03 11 7.06 11 4 11 C4 8.69 4 6.38 4 4 C3.01 4 2.02 4 1 4 C1 6.31 1 8.62 1 11 C0.67 11 0.34 11 0 11 C0 8.69 0 6.38 0 4 C-0.66 4 -1.32 4 -2 4 C-2 6.31 -2 8.62 -2 11 C-2.66 11 -3.32 11 -4 11 C-4 8.36 -4 5.72 -4 3 C-2.68 3 -1.36 3 0 3 C0 2.01 0 1.02 0 0 Z " fill="#B7B7B7" transform="translate(169,89)"/>
<path d="M0 0 C1.81242052 -0.02687279 3.62495233 -0.04633715 5.4375 -0.0625 C6.44683594 -0.07410156 7.45617187 -0.08570313 8.49609375 -0.09765625 C11 0 11 0 12 1 C12.04092937 3.33297433 12.04241723 5.66705225 12 8 C8 8 4 8 0 8 C0 5.36 0 2.72 0 0 Z " fill="#D2D2D2" transform="translate(250,9)"/>
<path d="M0 0 C2.00349261 0.31165441 4.00326516 0.64763503 6 1 C8.76864953 0.63141012 8.76864953 0.63141012 11 0 C11.66 1.32 12.32 2.64 13 4 C11.02 4 9.04 4 7 4 C7.33 4.66 7.66 5.32 8 6 C9.65 6 11.3 6 13 6 C12.67 6.66 12.34 7.32 12 8 C7.50886589 8 3.40461018 7.95234815 -1 7 C-1.625 4.625 -1.625 4.625 -2 2 C-1.34 1.34 -0.68 0.68 0 0 Z " fill="#B2B2B2" transform="translate(153,64)"/>
<path d="M0 0 C2.00349261 0.31165441 4.00326516 0.64763503 6 1 C8.76864953 0.63141012 8.76864953 0.63141012 11 0 C11.66 1.32 12.32 2.64 13 4 C11.02 4 9.04 4 7 4 C7.33 4.66 7.66 5.32 8 6 C9.65 6 11.3 6 13 6 C12.67 6.66 12.34 7.32 12 8 C7.50886589 8 3.40461018 7.95234815 -1 7 C-1.625 4.625 -1.625 4.625 -2 2 C-1.34 1.34 -0.68 0.68 0 0 Z " fill="#B2B2B2" transform="translate(145,9)"/>
<path d="M0 0 C0.66 0 1.32 0 2 0 C2 3.63 2 7.26 2 11 C-4.8359375 11.1953125 -4.8359375 11.1953125 -7 11 C-7.66 10.34 -8.32 9.68 -9 9 C-8.625 6.375 -8.625 6.375 -8 4 C-3.25 2.875 -3.25 2.875 -1 4 C-0.67 2.68 -0.34 1.36 0 0 Z " fill="#CACACA" transform="translate(456,61)"/>
<path d="M0 0 C5.75 -0.125 5.75 -0.125 8 1 C8.02689216 2.47906892 8.04634621 3.95827483 8.0625 5.4375 C8.07410156 6.26121094 8.08570313 7.08492187 8.09765625 7.93359375 C8 10 8 10 7 11 C4.66702567 11.04092937 2.33294775 11.04241723 0 11 C0 7.37 0 3.74 0 0 Z " fill="#B5B5B5" transform="translate(145,34)"/>
<path d="M0 0 C1.51400391 0.01740234 1.51400391 0.01740234 3.05859375 0.03515625 C4.07050781 0.04417969 5.08242188 0.05320313 6.125 0.0625 C7.29869141 0.07990234 7.29869141 0.07990234 8.49609375 0.09765625 C7.50609375 0.59265625 7.50609375 0.59265625 6.49609375 1.09765625 C6.08880147 3.41922222 5.75170698 5.75453495 5.49609375 8.09765625 C-0.55859375 8.29296875 -0.55859375 8.29296875 -2.50390625 8.09765625 C-3.16390625 7.43765625 -3.82390625 6.77765625 -4.50390625 6.09765625 C-3.77826013 0.14735804 -3.77826013 0.14735804 0 0 Z " fill="#CACACA" transform="translate(360.50390625,36.90234375)"/>
<path d="M0 0 C4.29 0 8.58 0 13 0 C13.33 0.66 13.66 1.32 14 2 C12.68 1.67 11.36 1.34 10 1 C10 1.66 10 2.32 10 3 C11.32 3.33 12.64 3.66 14 4 C13.67 5.32 13.34 6.64 13 8 C10.03 8 7.06 8 4 8 C4 5.69 4 3.38 4 1 C3.01 1.495 3.01 1.495 2 2 C1.34227572 5.02934491 1.34227572 5.02934491 1 8 C0.67 8 0.34 8 0 8 C0 5.36 0 2.72 0 0 Z " fill="#A9A9A9" transform="translate(264,9)"/>
<path d="M0 0 C0.66 0 1.32 0 2 0 C2 2.31 2 4.62 2 7 C2.99 7 3.98 7 5 7 C5 4.69 5 2.38 5 0 C5.66 0 6.32 0 7 0 C7 1.32 7 2.64 7 4 C7.66 2.68 8.32 1.36 9 0 C10.65 0 12.3 0 14 0 C13.67 0.66 13.34 1.32 13 2 C12.01 1.67 11.02 1.34 10 1 C10 1.66 10 2.32 10 3 C11.65 3.33 13.3 3.66 15 4 C14.67 5.32 14.34 6.64 14 8 C11.66666667 8 9.33333333 8 7 8 C5.989375 8.020625 4.97875 8.04125 3.9375 8.0625 C1 8 1 8 0 7 C-0.04092937 4.66702567 -0.04241723 2.33294775 0 0 Z " fill="#A2A2A2" transform="translate(207,64)"/>
<path d="M0 0 C0.33 0.66 0.66 1.32 1 2 C3.64 2 6.28 2 9 2 C9.66 3.32 10.32 4.64 11 6 C9.02 6 7.04 6 5 6 C5.33 6.66 5.66 7.32 6 8 C7.65 8 9.3 8 11 8 C10.67 8.66 10.34 9.32 10 10 C7.03 10 4.06 10 1 10 C-1.125 3.375 -1.125 3.375 0 0 Z " fill="#AFAFAF" transform="translate(394,7)"/>
<path d="M0 0 C0.66 0 1.32 0 2 0 C2 0.99 2 1.98 2 3 C3.65 3.33 5.3 3.66 7 4 C7 6.31 7 8.62 7 11 C6.34 11 5.68 11 5 11 C5 8.69 5 6.38 5 4 C4.01 4.495 4.01 4.495 3 5 C2.34227572 8.02934491 2.34227572 8.02934491 2 11 C0.35 11 -1.3 11 -3 11 C-3.9765625 4.9453125 -3.9765625 4.9453125 -4 3 C-3.34 2.34 -2.68 1.68 -2 1 C-2 1.66 -2 2.32 -2 3 C-1.34 3 -0.68 3 0 3 C0 2.01 0 1.02 0 0 Z " fill="#A6A6A6" transform="translate(425,89)"/>
<path d="M0 0 C0.66 0 1.32 0 2 0 C2 0.99 2 1.98 2 3 C3.65 3.33 5.3 3.66 7 4 C7 6.31 7 8.62 7 11 C6.34 11 5.68 11 5 11 C5 8.69 5 6.38 5 4 C4.01 4.495 4.01 4.495 3 5 C2.34227572 8.02934491 2.34227572 8.02934491 2 11 C0.35 11 -1.3 11 -3 11 C-3.9765625 4.9453125 -3.9765625 4.9453125 -4 3 C-3.34 2.34 -2.68 1.68 -2 1 C-2 1.66 -2 2.32 -2 3 C-1.34 3 -0.68 3 0 3 C0 2.01 0 1.02 0 0 Z " fill="#A6A6A6" transform="translate(319,61)"/>
<path d="M0 0 C0.66 0 1.32 0 2 0 C2 1.32 2 2.64 2 4 C3.98 3.67 5.96 3.34 8 3 C7.67 4.32 7.34 5.64 7 7 C7.66 7 8.32 7 9 7 C8.67 8.32 8.34 9.64 8 11 C5.36 11 2.72 11 0 11 C0 7.37 0 3.74 0 0 Z " fill="#C8C8C8" transform="translate(162,34)"/>
<path d="M0 0 C0.33 0.66 0.66 1.32 1 2 C1.66 2.33 2.32 2.66 3 3 C2.34 3 1.68 3 1 3 C1 4.98 1 6.96 1 9 C1.66 9.33 2.32 9.66 3 10 C0.69 10 -1.62 10 -4 10 C-4 7.69 -4 5.38 -4 3 C-4.99 3.495 -4.99 3.495 -6 4 C-6.65772428 7.02934491 -6.65772428 7.02934491 -7 10 C-7.66 10 -8.32 10 -9 10 C-9 7.36 -9 4.72 -9 2 C-6.03 2 -3.06 2 0 2 C0 1.34 0 0.68 0 0 Z " fill="#989898" transform="translate(465,7)"/>
<path d="M0 0 C2.64 0 5.28 0 8 0 C7.67 1.32 7.34 2.64 7 4 C7.66 4 8.32 4 9 4 C8.67 5.32 8.34 6.64 8 8 C5.36 8 2.72 8 0 8 C0 5.36 0 2.72 0 0 Z " fill="#CDCDCD" transform="translate(141,64)"/>
<path d="M0 0 C0.66 0 1.32 0 2 0 C2.33 2.31 2.66 4.62 3 7 C4.65 6.67 6.3 6.34 8 6 C8 5.34 8 4.68 8 4 C6.35 4.33 4.7 4.66 3 5 C3.33 4.34 3.66 3.68 4 3 C5.65 3 7.3 3 9 3 C9.33 5.64 9.66 8.28 10 11 C6.7 11 3.4 11 0 11 C0 7.37 0 3.74 0 0 Z " fill="#969696" transform="translate(171,61)"/>
<path d="M0 0 C0.66 0 1.32 0 2 0 C2 3.63 2 7.26 2 11 C0.00045254 11.04254356 -2.00041636 11.04080783 -4 11 C-5 10 -5 10 -5.0625 6.9375 C-5.041875 5.968125 -5.02125 4.99875 -5 4 C-3.35 3.67 -1.7 3.34 0 3 C0 2.01 0 1.02 0 0 Z " fill="#8E8E8E" transform="translate(269,89)"/>
<path d="M0 0 C0.66 0 1.32 0 2 0 C2 3.63 2 7.26 2 11 C0.00045254 11.04254356 -2.00041636 11.04080783 -4 11 C-5 10 -5 10 -5.0625 6.9375 C-5.041875 5.968125 -5.02125 4.99875 -5 4 C-3.35 3.67 -1.7 3.34 0 3 C0 2.01 0 1.02 0 0 Z " fill="#8E8E8E" transform="translate(273,34)"/>
<path d="M0 0 C1.2065625 0.0309375 1.2065625 0.0309375 2.4375 0.0625 C2.46438151 1.70824566 2.48384123 3.35411413 2.5 5 C2.51160156 5.91652344 2.52320313 6.83304687 2.53515625 7.77734375 C2.4375 10.0625 2.4375 10.0625 1.4375 11.0625 C-0.22867115 11.10313832 -1.89638095 11.105221 -3.5625 11.0625 C-3.2325 10.4025 -2.9025 9.7425 -2.5625 9.0625 C-1.5725 9.0625 -0.5825 9.0625 0.4375 9.0625 C-0.8825 8.4025 -2.2025 7.7425 -3.5625 7.0625 C-3.60504356 5.06295254 -3.60330783 3.06208364 -3.5625 1.0625 C-2.5625 0.0625 -2.5625 0.0625 0 0 Z " fill="#7D7D7D" transform="translate(343.5625,63.9375)"/>
<path d="M0 0 C1.65 0 3.3 0 5 0 C5.66 0.66 6.32 1.32 7 2 C6.625 4.625 6.625 4.625 6 7 C5.38125 7.103125 4.7625 7.20625 4.125 7.3125 C1.63473516 7.87525373 1.63473516 7.87525373 0 11 C0 7.37 0 3.74 0 0 Z " fill="#828282" transform="translate(280,9)"/>
<path d="M0 0 C0.33 0.66 0.66 1.32 1 2 C2.65 2 4.3 2 6 2 C6 4.64 6 7.28 6 10 C4.02 10 2.04 10 0 10 C-1.125 2.25 -1.125 2.25 0 0 Z " fill="#B2B2B2" transform="translate(297,90)"/>
<path d="M0 0 C2.31 0 4.62 0 7 0 C7.38218767 1.65614657 7.71395102 3.32457024 8 5 C7 6 7 6 3.9375 6.0625 C2.968125 6.041875 1.99875 6.02125 1 6 C1 7.65 1 9.3 1 11 C0.67 11 0.34 11 0 11 C0 7.37 0 3.74 0 0 Z " fill="#757575" transform="translate(347,34)"/>
<path d="M0 0 C0 1.98 0 3.96 0 6 C-4.75 7.125 -4.75 7.125 -7 6 C-7 4.02 -7 2.04 -7 0 C-4.3333581 -1.33332095 -2.83319697 -0.67102033 0 0 Z " fill="#B7B7B7" transform="translate(311,93)"/>
<path d="M0 0 C0 1.98 0 3.96 0 6 C-4.75 7.125 -4.75 7.125 -7 6 C-7 4.02 -7 2.04 -7 0 C-4.3333581 -1.33332095 -2.83319697 -0.67102033 0 0 Z " fill="#B7B7B7" transform="translate(314,65)"/>
<path d="M0 0 C0 1.98 0 3.96 0 6 C-4.75 7.125 -4.75 7.125 -7 6 C-7 4.02 -7 2.04 -7 0 C-4.3333581 -1.33332095 -2.83319697 -0.67102033 0 0 Z " fill="#B7B7B7" transform="translate(142,10)"/>
<path d="M0 0 C1.67542976 0.28604898 3.34385343 0.61781233 5 1 C5.625 3.375 5.625 3.375 6 6 C5.34 6.66 4.68 7.32 4 8 C1.375 7.625 1.375 7.625 -1 7 C-1.04254356 5.00045254 -1.04080783 2.99958364 -1 1 C-0.67 0.67 -0.34 0.34 0 0 Z " fill="#888888" transform="translate(200,64)"/>
<path d="M0 0 C1.67542976 0.28604898 3.34385343 0.61781233 5 1 C5.625 3.375 5.625 3.375 6 6 C5.34 6.66 4.68 7.32 4 8 C1.375 7.625 1.375 7.625 -1 7 C-1.04254356 5.00045254 -1.04080783 2.99958364 -1 1 C-0.67 0.67 -0.34 0.34 0 0 Z " fill="#888888" transform="translate(261,37)"/>
<path d="M0 0 C1.67542976 0.28604898 3.34385343 0.61781233 5 1 C5 2.98 5 4.96 5 7 C2.625 7.625 2.625 7.625 0 8 C-0.66 7.34 -1.32 6.68 -2 6 C-1.44444444 1.44444444 -1.44444444 1.44444444 0 0 Z " fill="#B6B6B6" transform="translate(379,37)"/>
<path d="M0 0 C1.67542976 0.28604898 3.34385343 0.61781233 5 1 C5.625 3.375 5.625 3.375 6 6 C5.34 6.66 4.68 7.32 4 8 C1.375 7.625 1.375 7.625 -1 7 C-1.04254356 5.00045254 -1.04080783 2.99958364 -1 1 C-0.67 0.67 -0.34 0.34 0 0 Z " fill="#888888" transform="translate(289,9)"/>
<path d="M0 0 C0.99 0.33 1.98 0.66 3 1 C2.34 1 1.68 1 1 1 C1 1.66 1 2.32 1 3 C1.99 3 2.98 3 4 3 C4.33 2.34 4.66 1.68 5 1 C6.15941038 4.47823115 5.70820884 6.45895578 5 10 C5.66 10.33 6.32 10.66 7 11 C6.01 11 5.02 11 4 11 C4 8.69 4 6.38 4 4 C3.01 4 2.02 4 1 4 C1 6.31 1 8.62 1 11 C0.67 11 0.34 11 0 11 C0 8.69 0 6.38 0 4 C-0.66 4 -1.32 4 -2 4 C-2 6.31 -2 8.62 -2 11 C-2.66 11 -3.32 11 -4 11 C-4 8.36 -4 5.72 -4 3 C-2.68 3 -1.36 3 0 3 C0 2.01 0 1.02 0 0 Z " fill="#878787" transform="translate(169,89)"/>
<path d="M0 0 C1.66611905 -0.042721 3.33382885 -0.04063832 5 0 C6 1 6 1 6.0625 4.5625 C6.041875 5.696875 6.02125 6.83125 6 8 C3.03 7.67 0.06 7.34 -3 7 C-1.1875 5 -1.1875 5 1 3 C1.99 3 2.98 3 4 3 C4 2.34 4 1.68 4 1 C2.35 1.33 0.7 1.66 -1 2 C-0.67 1.34 -0.34 0.68 0 0 Z " fill="#AFAFAF" transform="translate(289,92)"/>
<path d="M0 0 C1.67542976 0.28604898 3.34385343 0.61781233 5 1 C5 2.98 5 4.96 5 7 C3.34385343 7.38218767 1.67542976 7.71395102 0 8 C-1 7 -1 7 -1.125 4 C-1 1 -1 1 0 0 Z " fill="#7F7F7F" transform="translate(253,37)"/>
<path d="M0 0 C0 3.63 0 7.26 0 11 C-2.97 10.505 -2.97 10.505 -6 10 C-5.67 9.01 -5.34 8.02 -5 7 C-4.34 7 -3.68 7 -3 7 C-3 5.68 -3 4.36 -3 3 C-3.99 2.67 -4.98 2.34 -6 2 C-3 0 -3 0 0 0 Z " fill="#B5B5B5" transform="translate(306,61)"/>
<path d="M0 0 C1.66611905 -0.042721 3.33382885 -0.04063832 5 0 C6 1 6 1 6.0625 4.5625 C6.041875 5.696875 6.02125 6.83125 6 8 C4.02 8 2.04 8 0 8 C-0.33 6.68 -0.66 5.36 -1 4 C0.65 3.67 2.3 3.34 4 3 C4 2.34 4 1.68 4 1 C2.35 1.33 0.7 1.66 -1 2 C-0.67 1.34 -0.34 0.68 0 0 Z " fill="#ACACAC" transform="translate(395,37)"/>
<path d="M0 0 C1.66611905 -0.042721 3.33382885 -0.04063832 5 0 C6 1 6 1 6.0625 4.5625 C6.041875 5.696875 6.02125 6.83125 6 8 C4.02 8 2.04 8 0 8 C-0.33 6.68 -0.66 5.36 -1 4 C0.65 3.67 2.3 3.34 4 3 C4 2.34 4 1.68 4 1 C2.35 1.33 0.7 1.66 -1 2 C-0.67 1.34 -0.34 0.68 0 0 Z " fill="#999999" transform="translate(416,9)"/>
<path d="M0 0 C1.66611905 -0.042721 3.33382885 -0.04063832 5 0 C6 1 6 1 6.0625 4.5625 C6.041875 5.696875 6.02125 6.83125 6 8 C4.02 8 2.04 8 0 8 C-0.33 6.68 -0.66 5.36 -1 4 C0.65 3.67 2.3 3.34 4 3 C4 2.34 4 1.68 4 1 C2.35 1.33 0.7 1.66 -1 2 C-0.67 1.34 -0.34 0.68 0 0 Z " fill="#999999" transform="translate(256,9)"/>
<path d="M0 0 C2.64 0 5.28 0 8 0 C8 0.33 8 0.66 8 1 C6.02 1 4.04 1 2 1 C2 2.32 2 3.64 2 5 C3.98 5 5.96 5 8 5 C8 5.33 8 5.66 8 6 C6.02 6 4.04 6 2 6 C2 7.32 2 8.64 2 10 C3.98 10 5.96 10 8 10 C8 10.33 8 10.66 8 11 C5.36 11 2.72 11 0 11 C0 7.37 0 3.74 0 0 Z " fill="#838383" transform="translate(254,89)"/>
<path d="M0 0 C0.66 0 1.32 0 2 0 C2 3.63 2 7.26 2 11 C1.34 11 0.68 11 0 11 C-0.33 9.68 -0.66 8.36 -1 7 C-1.66 8.32 -2.32 9.64 -3 11 C-3.66 10.67 -4.32 10.34 -5 10 C-4.17243116 6.00008392 -2.26023251 3.39034877 0 0 Z " fill="#999999" transform="translate(137,61)"/>
<path d="M0 0 C0.33 0 0.66 0 1 0 C1 1.65 1 3.3 1 5 C2.98 5 4.96 5 7 5 C7 3.35 7 1.7 7 0 C7.66 0 8.32 0 9 0 C9 3.63 9 7.26 9 11 C8.34 11 7.68 11 7 11 C7 9.35 7 7.7 7 6 C5.02 6 3.04 6 1 6 C1 7.65 1 9.3 1 11 C0.67 11 0.34 11 0 11 C0 7.37 0 3.74 0 0 Z " fill="#898989" transform="translate(391,89)"/>
<path d="M0 0 C1.67542976 0.28604898 3.34385343 0.61781233 5 1 C5.33 1.99 5.66 2.98 6 4 C4.02 4 2.04 4 0 4 C0.33 4.66 0.66 5.32 1 6 C2.65 6 4.3 6 6 6 C5.67 6.66 5.34 7.32 5 8 C2.625 8.125 2.625 8.125 0 8 C-0.66 7.34 -1.32 6.68 -2 6 C-1.44444444 1.44444444 -1.44444444 1.44444444 0 0 Z " fill="#9A9A9A" transform="translate(192,64)"/>
<path d="M0 0 C1.2065625 0.0309375 1.2065625 0.0309375 2.4375 0.0625 C2.4375 2.7025 2.4375 5.3425 2.4375 8.0625 C0.4575 8.0625 -1.5225 8.0625 -3.5625 8.0625 C-3.5625 6.7425 -3.5625 5.4225 -3.5625 4.0625 C-2.2425 3.4025 -0.9225 2.7425 0.4375 2.0625 C-0.8825 1.7325 -2.2025 1.4025 -3.5625 1.0625 C-2.5625 0.0625 -2.5625 0.0625 0 0 Z " fill="#999999" transform="translate(435.5625,63.9375)"/>
<path d="M0 0 C1.2065625 0.0309375 1.2065625 0.0309375 2.4375 0.0625 C2.4375 2.7025 2.4375 5.3425 2.4375 8.0625 C0.4575 8.0625 -1.5225 8.0625 -3.5625 8.0625 C-3.5625 6.7425 -3.5625 5.4225 -3.5625 4.0625 C-2.2425 3.4025 -0.9225 2.7425 0.4375 2.0625 C-0.8825 1.7325 -2.2025 1.4025 -3.5625 1.0625 C-2.5625 0.0625 -2.5625 0.0625 0 0 Z " fill="#999999" transform="translate(424.5625,36.9375)"/>
<path d="M0 0 C1.65 0 3.3 0 5 0 C5.33 2.64 5.66 5.28 6 8 C3.69 8 1.38 8 -1 8 C-1 6.68 -1 5.36 -1 4 C0.65 3.67 2.3 3.34 4 3 C4 2.34 4 1.68 4 1 C2.35 1.33 0.7 1.66 -1 2 C-0.67 1.34 -0.34 0.68 0 0 Z " fill="#969696" transform="translate(411,92)"/>
<path d="M0 0 C2.625 0.375 2.625 0.375 5 1 C5.33 1.99 5.66 2.98 6 4 C4.02 4 2.04 4 0 4 C0.95865509 6.33075929 0.95865509 6.33075929 4 8 C2.35 7.67 0.7 7.34 -1 7 C-1.625 4.625 -1.625 4.625 -2 2 C-1.34 1.34 -0.68 0.68 0 0 Z " fill="#989898" transform="translate(403,92)"/>
<path d="M0 0 C2.625 0.375 2.625 0.375 5 1 C5.33 1.99 5.66 2.98 6 4 C4.02 4 2.04 4 0 4 C0.95865509 6.33075929 0.95865509 6.33075929 4 8 C2.35 7.67 0.7 7.34 -1 7 C-1.625 4.625 -1.625 4.625 -2 2 C-1.34 1.34 -0.68 0.68 0 0 Z " fill="#989898" transform="translate(449,64)"/>
<path d="M0 0 C2.625 0.375 2.625 0.375 5 1 C5.33 1.99 5.66 2.98 6 4 C4.02 4 2.04 4 0 4 C0.95865509 6.33075929 0.95865509 6.33075929 4 8 C2.35 7.67 0.7 7.34 -1 7 C-1.625 4.625 -1.625 4.625 -2 2 C-1.34 1.34 -0.68 0.68 0 0 Z " fill="#989898" transform="translate(358,37)"/>
<path d="M0 0 C2.31 0 4.62 0 7 0 C7 0.66 7 1.32 7 2 C5.35 2.33 3.7 2.66 2 3 C2 3.99 2 4.98 2 6 C-1 7 -1 7 -3.1875 6.0625 C-3.785625 5.711875 -4.38375 5.36125 -5 5 C-5 4.34 -5 3.68 -5 3 C-3.02 3 -1.04 3 1 3 C0.67 2.01 0.34 1.02 0 0 Z " fill="#F0F0F0" transform="translate(408,93)"/>
<path d="M0 0 C1.99954746 -0.04254356 4.00041636 -0.04080783 6 0 C7 1 7 1 7.0625 4.5625 C7.041875 5.696875 7.02125 6.83125 7 8 C6.34 8 5.68 8 5 8 C5 5.69 5 3.38 5 1 C4.01 1.495 4.01 1.495 3 2 C2.34227572 5.02934491 2.34227572 5.02934491 2 8 C1.34 8 0.68 8 0 8 C0 5.36 0 2.72 0 0 Z " fill="#989898" transform="translate(312,92)"/>
<path d="M0 0 C1.99954746 -0.04254356 4.00041636 -0.04080783 6 0 C7 1 7 1 7.0625 4.5625 C7.041875 5.696875 7.02125 6.83125 7 8 C6.34 8 5.68 8 5 8 C5 5.69 5 3.38 5 1 C4.01 1.495 4.01 1.495 3 2 C2.34227572 5.02934491 2.34227572 5.02934491 2 8 C1.34 8 0.68 8 0 8 C0 5.36 0 2.72 0 0 Z " fill="#989898" transform="translate(331,64)"/>
<path d="M0 0 C1.67542976 0.28604898 3.34385343 0.61781233 5 1 C5.33 1.99 5.66 2.98 6 4 C4.02 4 2.04 4 0 4 C0.33 4.66 0.66 5.32 1 6 C2.65 6 4.3 6 6 6 C5.67 6.66 5.34 7.32 5 8 C3.33388095 8.042721 1.66617115 8.04063832 0 8 C-1 7 -1 7 -1.125 4 C-1 1 -1 1 0 0 Z " fill="#959595" transform="translate(449,9)"/>
<path d="M0 0 C1.99954746 -0.04254356 4.00041636 -0.04080783 6 0 C7 1 7 1 7.0625 4.5625 C7.041875 5.696875 7.02125 6.83125 7 8 C6.34 8 5.68 8 5 8 C5 5.69 5 3.38 5 1 C4.01 1.495 4.01 1.495 3 2 C2.34227572 5.02934491 2.34227572 5.02934491 2 8 C1.34 8 0.68 8 0 8 C0 5.36 0 2.72 0 0 Z " fill="#979797" transform="translate(435,9)"/>
<path d="M0 0 C1.99954746 -0.04254356 4.00041636 -0.04080783 6 0 C7 1 7 1 7.0625 4.5625 C7.041875 5.696875 7.02125 6.83125 7 8 C6.34 8 5.68 8 5 8 C5 5.69 5 3.38 5 1 C4.01 1.495 4.01 1.495 3 2 C2.34227572 5.02934491 2.34227572 5.02934491 2 8 C1.34 8 0.68 8 0 8 C0 5.36 0 2.72 0 0 Z " fill="#989898" transform="translate(385,9)"/>
<path d="M0 0 C2 3 2 3 1.625 6.1875 C1.41875 7.115625 1.2125 8.04375 1 9 C1.66 9.33 2.32 9.66 3 10 C2.01 10 1.02 10 0 10 C0 7.69 0 5.38 0 3 C-1.32 3 -2.64 3 -4 3 C-4 5.31 -4 7.62 -4 10 C-4.66 10 -5.32 10 -6 10 C-6 7.36 -6 4.72 -6 2 C-4.02 2 -2.04 2 0 2 C0 1.34 0 0.68 0 0 Z " fill="#8A8A8A" transform="translate(412,7)"/>
<path d="M0 0 C2 3 2 3 1.625 6.1875 C1.41875 7.115625 1.2125 8.04375 1 9 C1.66 9.33 2.32 9.66 3 10 C2.01 10 1.02 10 0 10 C0 7.69 0 5.38 0 3 C-1.32 3 -2.64 3 -4 3 C-4 5.31 -4 7.62 -4 10 C-4.66 10 -5.32 10 -6 10 C-6 7.36 -6 4.72 -6 2 C-4.02 2 -2.04 2 0 2 C0 1.34 0 0.68 0 0 Z " fill="#8A8A8A" transform="translate(302,7)"/>
<path d="M0 0 C5.54110713 3.40991208 10.20968493 7.61420043 15 12 C11.0348385 12 9.56478482 10.55607135 6.375 8.25 C5.39273438 7.55390625 4.41046875 6.8578125 3.3984375 6.140625 C0.99651717 3.99689155 0.29676799 3.13726165 0 0 Z " fill="#FFD0A3" transform="translate(214,263)"/>
<path d="M0 0 C0.33 0.66 0.66 1.32 1 2 C1.66 2.33 2.32 2.66 3 3 C2.34 3 1.68 3 1 3 C1 4.98 1 6.96 1 9 C1.66 9.33 2.32 9.66 3 10 C1.35 10 -0.3 10 -2 10 C-2.33 7.36 -2.66 4.72 -3 2 C-2.01 2 -1.02 2 0 2 C0 1.34 0 0.68 0 0 Z " fill="#B8B8B8" transform="translate(465,7)"/>
<path d="M0 0 C1.32 0 2.64 0 4 0 C3.67 1.32 3.34 2.64 3 4 C3.66 4 4.32 4 5 4 C4.67 5.32 4.34 6.64 4 8 C2.35 8 0.7 8 -1 8 C-0.67 7.34 -0.34 6.68 0 6 C0.99 6 1.98 6 3 6 C1.68 5.34 0.36 4.68 -1 4 C-0.67 2.68 -0.34 1.36 0 0 Z " fill="#939393" transform="translate(145,64)"/>
<path d="M0 0 C1.32 0 2.64 0 4 0 C3.67 1.32 3.34 2.64 3 4 C3.66 4 4.32 4 5 4 C4.67 5.32 4.34 6.64 4 8 C2.35 8 0.7 8 -1 8 C-0.67 7.34 -0.34 6.68 0 6 C0.99 6 1.98 6 3 6 C1.68 5.34 0.36 4.68 -1 4 C-0.67 2.68 -0.34 1.36 0 0 Z " fill="#939393" transform="translate(371,37)"/>
<path d="M0 0 C1.32 0 2.64 0 4 0 C3.67 1.32 3.34 2.64 3 4 C3.66 4 4.32 4 5 4 C4.67 5.32 4.34 6.64 4 8 C2.35 8 0.7 8 -1 8 C-0.67 7.34 -0.34 6.68 0 6 C0.99 6 1.98 6 3 6 C1.68 5.34 0.36 4.68 -1 4 C-0.67 2.68 -0.34 1.36 0 0 Z " fill="#939393" transform="translate(166,37)"/>
<path d="M0 0 C0.598125 0.226875 1.19625 0.45375 1.8125 0.6875 C1.1525 1.05875 0.4925 1.43 -0.1875 1.8125 C-2.54053045 3.59644778 -2.54053045 3.59644778 -2.4375 6.875 C-2.355 7.803125 -2.2725 8.73125 -2.1875 9.6875 C-2.8475 9.6875 -3.5075 9.6875 -4.1875 9.6875 C-5.52304084 3.25262141 -5.52304084 3.25262141 -4 0.6875 C-2.1875 -0.3125 -2.1875 -0.3125 0 0 Z " fill="#9F9F9F" transform="translate(298.1875,61.3125)"/>
<path d="M0 0 C0.99 0.495 0.99 0.495 2 1 C2.33 1.99 2.66 2.98 3 4 C3.66 2.68 4.32 1.36 5 0 C5.66 0 6.32 0 7 0 C5.125 5.75 5.125 5.75 4 8 C3.34 8 2.68 8 2 8 C0.74335022 5.09399739 0 3.20395416 0 0 Z " fill="#939393" transform="translate(440,64)"/>
<path d="M0 0 C0.99 0.33 1.98 0.66 3 1 C2.67 4.3 2.34 7.6 2 11 C1.34 11 0.68 11 0 11 C0 7.37 0 3.74 0 0 Z " fill="#9B9B9B" transform="translate(128,61)"/>
<path d="M0 0 C0.66 0 1.32 0 2 0 C2.33 3.3 2.66 6.6 3 10 C2.01 10.33 1.02 10.66 0 11 C0 7.37 0 3.74 0 0 Z " fill="#ADADAD" transform="translate(171,61)"/>
<path d="M0 0 C2.31 0 4.62 0 7 0 C7 0.66 7 1.32 7 2 C5.35 2.33 3.7 2.66 2 3 C2 3.99 2 4.98 2 6 C1.34 6 0.68 6 0 6 C0 4.02 0 2.04 0 0 Z " fill="#F6F6F6" transform="translate(413,10)"/>
<path d="M0 0 C1.65 0 3.3 0 5 0 C5 1.32 5 2.64 5 4 C3.35 4 1.7 4 0 4 C0 2.68 0 1.36 0 0 Z " fill="#F2F2F2" transform="translate(348,35)"/>
<path d="M0 0 C0.99 0.33 1.98 0.66 3 1 C2.67 2.65 2.34 4.3 2 6 C1.01 5.67 0.02 5.34 -1 5 C-0.67 3.35 -0.34 1.7 0 0 Z " fill="#F4F4F4" transform="translate(266,93)"/>
<path d="M0 0 C0.99 0.33 1.98 0.66 3 1 C2.67 2.65 2.34 4.3 2 6 C1.01 5.67 0.02 5.34 -1 5 C-0.67 3.35 -0.34 1.7 0 0 Z " fill="#F6F6F6" transform="translate(342,65)"/>
<path d="M0 0 C0.99 0.33 1.98 0.66 3 1 C2.67 2.65 2.34 4.3 2 6 C1.01 5.67 0.02 5.34 -1 5 C-0.67 3.35 -0.34 1.7 0 0 Z " fill="#F8F8F8" transform="translate(201,65)"/>
<path d="M0 0 C0.99 0.33 1.98 0.66 3 1 C2.67 2.65 2.34 4.3 2 6 C1.01 5.67 0.02 5.34 -1 5 C-0.67 3.35 -0.34 1.7 0 0 Z " fill="#F4F4F4" transform="translate(270,38)"/>
<path d="M0 0 C0.99 0.33 1.98 0.66 3 1 C2.67 2.65 2.34 4.3 2 6 C1.01 5.67 0.02 5.34 -1 5 C-0.67 3.35 -0.34 1.7 0 0 Z " fill="#F8F8F8" transform="translate(262,38)"/>
<path d="M0 0 C0.99 0.33 1.98 0.66 3 1 C2.67 2.65 2.34 4.3 2 6 C1.01 5.67 0.02 5.34 -1 5 C-0.67 3.35 -0.34 1.7 0 0 Z " fill="#FAFAFA" transform="translate(254,38)"/>
<path d="M0 0 C0.33 0.66 0.66 1.32 1 2 C1.66 2.33 2.32 2.66 3 3 C3 5.31 3 7.62 3 10 C2.01 9.67 1.02 9.34 0 9 C-1.125 2.25 -1.125 2.25 0 0 Z " fill="#8F8F8F" transform="translate(394,7)"/>
<path d="M0 0 C0.99 0.33 1.98 0.66 3 1 C2.67 2.65 2.34 4.3 2 6 C1.01 5.67 0.02 5.34 -1 5 C-0.67 3.35 -0.34 1.7 0 0 Z " fill="#F8F8F8" transform="translate(290,10)"/>
<path d="M0 0 C0.99 0.33 1.98 0.66 3 1 C2.67 2.65 2.34 4.3 2 6 C1.01 5.67 0.02 5.34 -1 5 C-0.67 3.35 -0.34 1.7 0 0 Z " fill="#F4F4F4" transform="translate(282,10)"/>
<path d="M0 0 C0.33 1.32 0.66 2.64 1 4 C-0.98 4.33 -2.96 4.66 -5 5 C-5.33 4.01 -5.66 3.02 -6 2 C-4.02 2 -2.04 2 0 2 C0 1.34 0 0.68 0 0 Z " fill="#F3F3F3" transform="translate(198,66)"/>
<path d="M0 0 C0 0.66 0 1.32 0 2 C-0.78375 2.268125 -1.5675 2.53625 -2.375 2.8125 C-5.28114923 3.84814432 -5.28114923 3.84814432 -7 7 C-7 5.02 -7 3.04 -7 1 C-4.50935112 0.31292445 -2.62113708 0 0 0 Z " fill="#F3F3F3" transform="translate(399,38)"/>
<path d="M0 0 C1.65 0 3.3 0 5 0 C5.625 1.8125 5.625 1.8125 6 4 C5.01 5.485 5.01 5.485 4 7 C4 6.01 4 5.02 4 4 C3.34 3.67 2.68 3.34 2 3 C2.66 3 3.32 3 4 3 C4 2.34 4 1.68 4 1 C2.35 1.33 0.7 1.66 -1 2 C-0.67 1.34 -0.34 0.68 0 0 Z " fill="#808080" transform="translate(289,92)"/>
<path d="M0 0 C1.65 0 3.3 0 5 0 C5.625 1.8125 5.625 1.8125 6 4 C5.01 5.485 5.01 5.485 4 7 C4 6.01 4 5.02 4 4 C3.34 3.67 2.68 3.34 2 3 C2.66 3 3.32 3 4 3 C4 2.34 4 1.68 4 1 C2.35 1.33 0.7 1.66 -1 2 C-0.67 1.34 -0.34 0.68 0 0 Z " fill="#808080" transform="translate(395,37)"/>
</svg>
